<?xml version="1.0" encoding="UTF-8" standalone="no"?>
<!-- Created with Inkscape (http://www.inkscape.org/) -->

<svg
   xmlns:dc="http://purl.org/dc/elements/1.1/"
   xmlns:cc="http://creativecommons.org/ns#"
   xmlns:rdf="http://www.w3.org/1999/02/22-rdf-syntax-ns#"
   xmlns:svg="http://www.w3.org/2000/svg"
   xmlns="http://www.w3.org/2000/svg"
   xmlns:sodipodi="http://sodipodi.sourceforge.net/DTD/sodipodi-0.dtd"
   xmlns:inkscape="http://www.inkscape.org/namespaces/inkscape"
   id="svg2"
   sodipodi:version="0.32"
   inkscape:version="0.48.0 r9654"
   width="53.698139"
   height="16.999998"
   xml:space="preserve"
   sodipodi:docname="vub.svg"
   inkscape:output_extension="org.inkscape.output.svg.inkscape"
   version="1.0"><metadata
     id="metadata7"><rdf:RDF><cc:Work
         rdf:about=""><dc:format>image/svg+xml</dc:format><dc:type
           rdf:resource="http://purl.org/dc/dcmitype/StillImage" /></cc:Work></rdf:RDF></metadata><defs
     id="defs5"><inkscape:perspective
       sodipodi:type="inkscape:persp3d"
       inkscape:vp_x="0 : 526.18109 : 1"
       inkscape:vp_y="0 : 1000 : 0"
       inkscape:vp_z="744.09448 : 526.18109 : 1"
       inkscape:persp3d-origin="372.04724 : 350.78739 : 1"
       id="perspective9" /><clipPath
       clipPathUnits="userSpaceOnUse"
       id="clipPath19"><path
         d="M 0,509.562 0,0 l 1609.54,0 0,509.562"
         id="path21"
         inkscape:connector-curvature="0" /></clipPath></defs><sodipodi:namedview
     inkscape:window-height="754"
     inkscape:window-width="1280"
     inkscape:pageshadow="2"
     inkscape:pageopacity="0.0"
     guidetolerance="10.0"
     gridtolerance="10.0"
     objecttolerance="10.0"
     borderopacity="1.0"
     bordercolor="#666666"
     pagecolor="#ffffff"
     id="base"
     showgrid="false"
     inkscape:zoom="4.612498"
     inkscape:cx="13.232408"
     inkscape:cy="8.8232537"
     inkscape:window-x="0"
     inkscape:window-y="25"
     inkscape:current-layer="g11"
     inkscape:window-maximized="1"
     fit-margin-top="0"
     fit-margin-left="0"
     fit-margin-right="0"
     fit-margin-bottom="0" /><g
     id="g11"
     inkscape:groupmode="layer"
     inkscape:label="VUB_logo_compact"
     transform="matrix(1.25,0,0,-1.25,-73.747179,40.348034)"><g
       id="g13"
       transform="matrix(0.02668993,0,0,0.02668993,58.997743,18.678253)"><g
         id="g15"><g
           id="g17"
           clip-path="url(#clipPath19)"><path
             d="m 410.918,509.562 -99.168,-99.16 -99.172,99.16 198.34,0"
             style="fill:#b2b204;fill-opacity:1;fill-rule:nonzero;stroke:none"
             id="path23"
             inkscape:connector-curvature="0" /><path
             d="m 359.043,76.3164 c 28.574,28.5546 25.43,44.2966 0.449,69.2816 l -47.734,47.73 -82.137,-82.168 47.734,-47.7147 c 25.625,-25.5469 44.364,-24.4531 72.313,3.4961 l 9.375,9.375 z m 73.945,130.9416 c 22.012,22.012 22.032,35 0,56.988 l -25.136,25.156 -56.231,-56.226 25.156,-25.141 c 23.575,-23.594 36.7,-20.293 48.106,-8.863 l 8.105,8.086 z m 68.086,255.097 c 0,0 6.992,6.055 14.102,22.012 l 108.32,0 C 594.727,475.812 580.84,462.453 580.84,462.453 L 432.109,313.66 460.742,285.027 c 33.867,-33.882 38.457,-68.55 4.317,-102.675 l -6.446,-6.461 c -24.609,-24.59 -30.996,-23.52 -49.648,-24.922 18.965,-27.153 20.801,-60.9182 -10.02,-91.7424 L 365.273,25.5352 C 331.387,-8.3125 292.461,-8.66016 258.359,25.4375 L 90.3906,193.406 c 0,0 -6.7461,6.684 -18.9726,-0.429 l 47.898,47.914 c -7.312,-12.207 -0.418,-18.989 -0.418,-18.989 l 36.454,-36.464 c 25.605,-25.528 44.347,-24.454 72.316,3.515 l 9.363,9.399 c 28.574,28.535 25.442,44.293 0.449,69.253 L 42.6562,462.453 c 0,0 -13.8867,13.359 -42.6562,21.895 l 108.32,0 c 7.11,-15.938 14.114,-21.993 14.114,-21.993 l 189.316,-189.32 189.324,189.32"
             style="fill:#56543c;fill-opacity:1;fill-rule:nonzero;stroke:none"
             id="path25"
             inkscape:connector-curvature="0" /><path
             d="m 856.848,380.059 -6.422,0 -40.852,103.996 12.258,0 26.539,-68.965 c 1.879,-5.031 3.93,-10.688 5.809,-16.02 l 0.328,0 c 1.726,5.332 3.601,10.364 5.965,16.02 l 28.746,68.965 11.949,0 -44.32,-103.996"
             style="fill:#56543c;fill-opacity:1;fill-rule:nonzero;stroke:none"
             id="path27"
             inkscape:connector-curvature="0" /><path
             d="m 947.941,443.371 c -1.574,0.625 -3.933,1.25 -7.078,1.25 -4.394,0 -11.621,-3.769 -16.316,-8.945 l 0,-55.149 -11.469,0 0,74.309 9.414,0 1.57,-8.477 c 10.208,9.258 15.86,10.36 21.211,10.36 3.301,0 6.118,-1.258 7.539,-2.196 l -4.871,-11.152"
             style="fill:#56543c;fill-opacity:1;fill-rule:nonzero;stroke:none"
             id="path29"
             inkscape:connector-curvature="0" /><path
             d="m 970.57,380.527 0,74.309 11.465,0 0,-74.309 -11.465,0 z m 5.637,89.864 c -4.391,0 -7.992,3.613 -7.992,8.007 0,4.407 3.601,8.02 7.992,8.02 4.414,0 8.016,-3.613 8.016,-8.02 0,-4.394 -3.602,-8.007 -8.016,-8.007"
             style="fill:#56543c;fill-opacity:1;fill-rule:nonzero;stroke:none"
             id="path31"
             inkscape:connector-curvature="0" /><path
             d="m 1021.93,470.391 c -4.39,0 -7.99,3.613 -7.99,8.007 0,4.407 3.6,8.02 7.99,8.02 4.41,0 8.02,-3.613 8.02,-8.02 0,-4.394 -3.61,-8.007 -8.02,-8.007 z m -15.7,-127.102 c -3.61,0 -8.335,0.625 -11.781,2.68 l 2.817,8.953 c 2.05,-1.106 4.414,-2.039 8.024,-2.039 7.22,0 10.83,5.332 10.83,18.219 l 0,83.734 11.47,0 0,-85.148 c 0,-19.793 -9.74,-26.399 -21.36,-26.399"
             style="fill:#56543c;fill-opacity:1;fill-rule:nonzero;stroke:none"
             id="path33"
             inkscape:connector-curvature="0" /><path
             d="m 1084.62,446.984 c -10.99,0 -17.91,-9.746 -17.91,-21.523 l 35.04,0 c 0,10.371 -5.81,21.523 -17.13,21.523 z m -18.06,-31.269 c 0,-14.133 8.17,-26.699 24.66,-26.699 6.29,0 13.19,2.507 17.61,5.339 l 3.45,-7.863 c -5.35,-4.39 -14.77,-7.539 -23.42,-7.539 -23.24,0 -34.56,19.008 -34.56,40.219 0,21.523 12.26,37.547 30.17,37.547 19.16,0 29.69,-15.235 29.69,-38.328 0,-0.782 0,-1.731 0,-2.676 l -47.6,0"
             style="fill:#56543c;fill-opacity:1;fill-rule:nonzero;stroke:none"
             id="path35"
             inkscape:connector-curvature="0" /><path
             d="m 887.34,200.637 c -6.137,-6.125 -15.551,-10.207 -29.379,-10.207 -13.043,0 -21.691,3.781 -27.352,9.109 -8.316,8.176 -10.047,20.273 -10.047,29.688 l 0,66.308 11.469,0 0,-66.465 c 0,-7.058 1.574,-15.703 7.383,-21.519 3.93,-4.082 9.898,-6.75 18.852,-6.75 9.894,0 16.339,2.668 20.578,6.914 4.715,5.027 6.445,12.258 6.445,20.422 l 0,67.398 11.465,0 0,-68.973 c 0,-9.421 -2.66,-19.011 -9.414,-25.925"
             style="fill:#56543c;fill-opacity:1;fill-rule:nonzero;stroke:none"
             id="path37"
             inkscape:connector-curvature="0" /><path
             d="m 976.574,192.004 0,45.711 c 0,9.265 -1.574,19.637 -12.886,19.637 -9.114,0 -17.282,-6.434 -23.09,-11.622 l 0,-53.726 -11.473,0 0,74.305 9.422,0 1.57,-8.797 c 8.801,6.441 16.188,10.679 26.559,10.679 10.683,0 21.367,-7.695 21.367,-26.226 l 0,-49.961 -11.469,0"
             style="fill:#56543c;fill-opacity:1;fill-rule:nonzero;stroke:none"
             id="path39"
             inkscape:connector-curvature="0" /><path
             d="m 1018.36,192.004 0,74.305 11.47,0 0,-74.305 -11.47,0 z m 5.66,89.859 c -4.41,0 -8.01,3.614 -8.01,8.008 0,4.406 3.6,8.012 8.01,8.012 4.39,0 8,-3.606 8,-8.012 0,-4.394 -3.61,-8.008 -8,-8.008"
             style="fill:#56543c;fill-opacity:1;fill-rule:nonzero;stroke:none"
             id="path41"
             inkscape:connector-curvature="0" /><path
             d="m 1088.59,191.531 -9.13,0 -28.26,74.778 11.77,0 21.21,-59.539 0.33,0 23.72,59.539 11.15,0 -30.79,-74.778"
             style="fill:#56543c;fill-opacity:1;fill-rule:nonzero;stroke:none"
             id="path43"
             inkscape:connector-curvature="0" /><path
             d="m 1163.37,258.457 c -11.01,0 -17.92,-9.734 -17.92,-21.523 l 35.04,0 c 0,10.363 -5.81,21.523 -17.12,21.523 z m -18.07,-31.262 c 0,-14.136 8.17,-26.718 24.67,-26.718 6.29,0 13.19,2.519 17.58,5.351 l 3.47,-7.859 c -5.35,-4.395 -14.76,-7.539 -23.42,-7.539 -23.24,0 -34.55,19.011 -34.55,40.222 0,21.528 12.25,37.539 30.16,37.539 19.16,0 29.69,-15.23 29.69,-38.328 0,-0.793 0,-1.726 0,-2.668 l -47.6,0"
             style="fill:#56543c;fill-opacity:1;fill-rule:nonzero;stroke:none"
             id="path45"
             inkscape:connector-curvature="0" /><path
             d="m 1252.12,254.844 c -1.57,0.625 -3.93,1.258 -7.07,1.258 -4.4,0 -11.63,-3.766 -16.32,-8.961 l 0,-55.137 -11.47,0 0,74.305 9.41,0 1.57,-8.489 c 10.21,9.282 15.86,10.371 21.21,10.371 3.3,0 6.13,-1.25 7.54,-2.195 l -4.87,-11.152"
             style="fill:#56543c;fill-opacity:1;fill-rule:nonzero;stroke:none"
             id="path47"
             inkscape:connector-curvature="0" /><path
             d="m 1287.47,190.43 c -10.68,0 -17.13,2.824 -22,5.656 l 4.41,8.965 c 3.45,-2.207 9.9,-5.356 18.07,-5.356 9.11,0 15.7,4.094 15.7,10.996 0,18.223 -33.77,11.789 -33.77,37.864 0,10.691 7.7,19.636 24.67,19.636 7.86,0 13.82,-1.714 18.69,-3.921 l 0,-10.059 c -5.19,2.203 -10.52,4.402 -18.21,4.402 -7.56,0 -13.83,-2.675 -13.83,-9.425 0,-16.661 34.41,-12.411 34.41,-36.754 0,-15.559 -12.89,-22.004 -28.14,-22.004"
             style="fill:#56543c;fill-opacity:1;fill-rule:nonzero;stroke:none"
             id="path49"
             inkscape:connector-curvature="0" /><path
             d="m 1341.2,192.004 0,74.305 11.48,0 0,-74.305 -11.48,0 z m 5.67,89.859 c -4.42,0 -8.02,3.614 -8.02,8.008 0,4.406 3.6,8.012 8.02,8.012 4.38,0 7.99,-3.606 7.99,-8.012 0,-4.394 -3.61,-8.008 -7.99,-8.008"
             style="fill:#56543c;fill-opacity:1;fill-rule:nonzero;stroke:none"
             id="path51"
             inkscape:connector-curvature="0" /><path
             d="m 1404.05,190.43 c -10.68,0 -15.88,6.281 -15.88,15.871 l 0,50.269 -12.1,0 0,9.739 12.1,0 0,16.336 11.47,3.925 0,-20.261 22.78,0 -4.08,-9.739 -18.7,0 0,-46.812 c 0,-6.289 2.36,-9.121 7.23,-9.121 5.35,0 10.2,2.984 13.19,5.347 l 3.63,-8.172 c -5.51,-4.082 -12.73,-7.382 -19.64,-7.382"
             style="fill:#56543c;fill-opacity:1;fill-rule:nonzero;stroke:none"
             id="path53"
             inkscape:connector-curvature="0" /><path
             d="m 1471.13,258.457 c -11,0 -17.91,-9.734 -17.91,-21.523 l 35.02,0 c 0,10.363 -5.81,21.523 -17.11,21.523 z m -18.08,-31.262 c 0,-14.136 8.17,-26.718 24.68,-26.718 6.27,0 13.2,2.519 17.58,5.351 l 3.46,-7.859 c -5.33,-4.395 -14.77,-7.539 -23.4,-7.539 -23.26,0 -34.58,19.011 -34.58,40.222 0,21.528 12.26,37.539 30.17,37.539 19.18,0 29.7,-15.23 29.7,-38.328 0,-0.793 0,-1.726 0,-2.668 l -47.61,0"
             style="fill:#56543c;fill-opacity:1;fill-rule:nonzero;stroke:none"
             id="path55"
             inkscape:connector-curvature="0" /><path
             d="m 1527.05,192.004 0,74.305 11.48,0 0,-74.305 -11.48,0 z m 5.67,89.859 c -4.4,0 -8.02,3.614 -8.02,8.008 0,4.406 3.62,8.012 8.02,8.012 4.38,0 8.01,-3.606 8.01,-8.012 0,-4.394 -3.63,-8.008 -8.01,-8.008"
             style="fill:#56543c;fill-opacity:1;fill-rule:nonzero;stroke:none"
             id="path57"
             inkscape:connector-curvature="0" /><path
             d="m 1589.9,190.43 c -10.68,0 -15.88,6.281 -15.88,15.871 l 0,50.269 -12.1,0 0,9.739 12.1,0 0,16.336 11.47,3.925 0,-20.261 22.78,0 -4.08,-9.739 -18.7,0 0,-46.812 c 0,-6.289 2.36,-9.121 7.23,-9.121 5.35,0 10.2,2.984 13.19,5.347 l 3.63,-8.172 c -5.51,-4.082 -12.73,-7.382 -19.64,-7.382"
             style="fill:#56543c;fill-opacity:1;fill-rule:nonzero;stroke:none"
             id="path59"
             inkscape:connector-curvature="0" /><path
             d="m 848.371,51.2383 -16.34,0 0,-37.0664 15.403,0 c 14.613,0 22.625,8.3164 22.625,19.3125 0,9.9062 -8.497,17.7539 -21.688,17.7539 z m -3.144,45.0898 -13.196,0 0,-34.5586 13.344,0 c 9.133,0 18.703,6.1289 18.703,18.0664 0,10.3672 -5.969,16.4922 -18.851,16.4922 z m 1.261,-92.84372 -25.926,0 0,103.52762 28.903,0 c 18.851,0 27.019,-13.1956 27.019,-24.9808 0,-10.6757 -5.023,-19.1718 -14.285,-22.9374 l 0,-0.1602 c 9.739,-1.5625 20.422,-11.3047 20.422,-25.1328 0,-13.9883 -8.324,-30.31642 -36.133,-30.31642"
             style="fill:#56543c;fill-opacity:1;fill-rule:nonzero;stroke:none"
             id="path61"
             inkscape:connector-curvature="0" /><path
             d="m 942.629,66.3164 c -1.574,0.625 -3.934,1.2617 -7.078,1.2617 -4.395,0 -11.621,-3.7695 -16.317,-8.957 l 0,-55.13672 -11.468,0 0,74.29682 9.414,0 1.57,-8.4726 c 10.207,9.2656 15.863,10.3711 21.211,10.3711 3.301,0 6.117,-1.2617 7.539,-2.1992 l -4.871,-11.1641"
             style="fill:#56543c;fill-opacity:1;fill-rule:nonzero;stroke:none"
             id="path63"
             inkscape:connector-curvature="0" /><path
             d="m 1012.86,3.48438 -2.99,7.69922 c -5.49,-4.70704 -14.136,-9.28126 -24.034,-9.28126 -10.051,0 -22.629,5.19922 -22.629,26.08596 l 0,49.7929 11.465,0 0,-48.6874 c 0,-12.4219 5.203,-17.2852 14.465,-17.2852 9.414,0 16.653,5.9726 19.793,9.9023 l 0,56.0703 11.47,0 0,-43.1914 c 0,-23.4062 0.48,-27.96871 1.57,-31.10542 l -9.11,0"
             style="fill:#56543c;fill-opacity:1;fill-rule:nonzero;stroke:none"
             id="path65"
             inkscape:connector-curvature="0" /><path
             d="m 1065.02,1.90234 c -10.68,0 -17.12,2.83204 -21.99,5.66407 l 4.39,8.95699 c 3.45,-2.1992 9.89,-5.3398 18.06,-5.3398 9.11,0 15.71,4.082 15.71,10.9961 0,18.2187 -33.77,11.7734 -33.77,37.8594 0,10.6836 7.69,19.6406 24.66,19.6406 7.87,0 13.83,-1.7305 18.7,-3.9258 l 0,-10.0625 c -5.18,2.207 -10.53,4.3984 -18.22,4.3984 -7.54,0 -13.82,-2.6679 -13.82,-9.4257 0,-16.6485 34.4,-12.4102 34.4,-36.7579 0,-15.55464 -12.89,-22.00386 -28.12,-22.00386"
             style="fill:#56543c;fill-opacity:1;fill-rule:nonzero;stroke:none"
             id="path67"
             inkscape:connector-curvature="0" /><path
             d="m 1131.47,1.90234 c -10.68,0 -17.12,2.83204 -21.99,5.66407 l 4.39,8.95699 c 3.47,-2.1992 9.89,-5.3398 18.06,-5.3398 9.13,0 15.73,4.082 15.73,10.9961 0,18.2187 -33.79,11.7734 -33.79,37.8594 0,10.6836 7.71,19.6406 24.66,19.6406 7.87,0 13.83,-1.7305 18.7,-3.9258 l 0,-10.0625 c -5.18,2.207 -10.53,4.3984 -18.22,4.3984 -7.54,0 -13.82,-2.6679 -13.82,-9.4257 0,-16.6485 34.4,-12.4102 34.4,-36.7579 0,-15.55464 -12.89,-22.00386 -28.12,-22.00386"
             style="fill:#56543c;fill-opacity:1;fill-rule:nonzero;stroke:none"
             id="path69"
             inkscape:connector-curvature="0" /><path
             d="m 1209.55,69.9336 c -10.99,0 -17.91,-9.7383 -17.91,-21.5274 l 35.03,0 c 0,10.3711 -5.81,21.5274 -17.12,21.5274 z m -18.07,-31.2617 c 0,-14.1289 8.17,-26.7071 24.66,-26.7071 6.29,0 13.2,2.5157 17.61,5.3477 l 3.45,-7.85938 c -5.35,-4.40234 -14.77,-7.55078 -23.42,-7.55078 -23.24,0 -34.55,19.01566 -34.55,40.22656 0,21.5234 12.25,37.5508 30.16,37.5508 19.16,0 29.69,-15.2383 29.69,-38.3399 0,-0.7812 0,-1.7226 0,-2.6679 l -47.6,0"
             style="fill:#56543c;fill-opacity:1;fill-rule:nonzero;stroke:none"
             id="path71"
             inkscape:connector-curvature="0" /><path
             d="m 1276.48,1.90234 c -9.11,0 -13.04,5.82422 -13.04,13.67186 l 0,99.1328 11.47,0 0,-93.9453 c 0,-7.0703 1.72,-8.4883 6.12,-8.4883 0.79,0 2.05,0 3.93,0.4688 l 1.42,-8.31642 c -3.46,-1.73047 -6.14,-2.52344 -9.9,-2.52344"
             style="fill:#56543c;fill-opacity:1;fill-rule:nonzero;stroke:none"
             id="path73"
             inkscape:connector-curvature="0" /><path
             d="m 703.516,0.574219 10,0 0,484.562001 -10,0 0,-484.562001 z"
             style="fill:#56543c;fill-opacity:1;fill-rule:nonzero;stroke:none"
             id="path75"
             inkscape:connector-curvature="0" /></g></g></g></g></svg>